HIERARCHY
ROOT Hips
{
	OFFSET 0.00000 0.00000 0.00000
	CHANNELS 6 Xposition Yposition Zposition Zrotation Yrotation Xrotation 
	JOINT LHipJoint
	{
		OFFSET 0 0 0
		CHANNELS 3 Zrotation Yrotation Xrotation
		JOINT LeftUpLeg
		{
			OFFSET 1.28858 -1.83292 1.03970
			CHANNELS 3 Zrotation Yrotation Xrotation
			JOINT LeftLeg
			{
				OFFSET 2.47846 -6.80952 0.00000
				CHANNELS 3 Zrotation Yrotation Xrotation
				JOINT LeftFoot
				{
					OFFSET 2.75274 -7.56311 0.00000
					CHANNELS 3 Zrotation Yrotation Xrotation
					JOINT LeftToeBase
					{
						OFFSET 0.12848 -0.35301 1.68223
						CHANNELS 3 Zrotation Yrotation Xrotation
						End Site
						{
							OFFSET 0.00000 -0.00000 0.87311
						}
					}
				}
			}
		}
	}
	JOINT RHipJoint
	{
		OFFSET 0 0 0
		CHANNELS 3 Zrotation Yrotation Xrotation
		JOINT RightUpLeg
		{
			OFFSET -1.31183 -1.83292 1.03970
			CHANNELS 3 Zrotation Yrotation Xrotation
			JOINT RightLeg
			{
				OFFSET -2.44740 -6.72417 0.00000
				CHANNELS 3 Zrotation Yrotation Xrotation
				JOINT RightFoot
				{
					OFFSET -2.67343 -7.34519 0.00000
					CHANNELS 3 Zrotation Yrotation Xrotation
					JOINT RightToeBase
					{
						OFFSET -0.16914 -0.46471 1.77626
						CHANNELS 3 Zrotation Yrotation Xrotation
						End Site
						{
							OFFSET -0.00000 -0.00000 0.92777
						}
					}
				}
			}
		}
	}
	JOINT LowerBack
	{
		OFFSET 0 0 0
		CHANNELS 3 Zrotation Yrotation Xrotation
		JOINT Spine
		{
			OFFSET 0.01249 2.14252 0.03842
			CHANNELS 3 Zrotation Yrotation Xrotation
			JOINT Spine1
			{
				OFFSET -0.02957 2.14199 -0.03751
				CHANNELS 3 Zrotation Yrotation Xrotation
				JOINT Neck
				{
					OFFSET 0 0 0
					CHANNELS 3 Zrotation Yrotation Xrotation
					JOINT Neck1
					{
						OFFSET -0.01678 1.65709 -0.05476
						CHANNELS 3 Zrotation Yrotation Xrotation
						JOINT Head
						{
							OFFSET 0.07912 1.58331 -0.11843
							CHANNELS 3 Zrotation Yrotation Xrotation
							End Site
							{
								OFFSET 0.03298 1.73940 -0.04271
							}
						}
					}
				}
				JOINT LeftShoulder
				{
					OFFSET 0 0 0
					CHANNELS 3 Zrotation Yrotation Xrotation
					JOINT LeftArm
					{
						OFFSET 3.39556 1.16496 0.08673
						CHANNELS 3 Zrotation Yrotation Xrotation
						JOINT LeftForeArm
						{
							OFFSET 5.23910 -0.00000 -0.00000
							CHANNELS 3 Zrotation Yrotation Xrotation
							JOINT LeftHand
							{
								OFFSET 3.31467 -0.00000 0.00000
								CHANNELS 3 Zrotation Yrotation Xrotation
								JOINT LeftFingerBase
								{
									OFFSET 0 0 0
									CHANNELS 3 Zrotation Yrotation Xrotation
									JOINT LeftHandIndex1
									{
										OFFSET 0.96590 -0.00000 0.00000
										CHANNELS 3 Zrotation Yrotation Xrotation
										End Site
										{
											OFFSET 0.77873 -0.00000 0.00000
										}
									}
								}
								JOINT LThumb
								{
									OFFSET 0 0 0
									CHANNELS 3 Zrotation Yrotation Xrotation
									End Site
									{
										OFFSET 0.79062 -0.00000 0.79062
									}
								}
							}
						}
					}
				}
				JOINT RightShoulder
				{
					OFFSET 0 0 0
					CHANNELS 3 Zrotation Yrotation Xrotation
					JOINT RightArm
					{
						OFFSET -3.27193 1.31331 0.33940
						CHANNELS 3 Zrotation Yrotation Xrotation
						JOINT RightForeArm
						{
							OFFSET -5.30252 -0.00000 0.00000
							CHANNELS 3 Zrotation Yrotation Xrotation
							JOINT RightHand
							{
								OFFSET -3.67875 -0.00000 0.00000
								CHANNELS 3 Zrotation Yrotation Xrotation
								JOINT RightFingerBase
								{
									OFFSET 0 0 0
									CHANNELS 3 Zrotation Yrotation Xrotation
									JOINT RightHandIndex1
									{
										OFFSET -0.59481 -0.00000 0.00000
										CHANNELS 3 Zrotation Yrotation Xrotation
										End Site
										{
											OFFSET -0.47955 -0.00000 0.00000
										}
									}
								}
								JOINT RThumb
								{
									OFFSET 0 0 0
									CHANNELS 3 Zrotation Yrotation Xrotation
									End Site
									{
										OFFSET -0.48687 -0.00000 0.48687
									}
								}
							}
						}
					}
				}
			}
		}
	}
}
MOTION
Frames: 15
Frame Time: .0083333
10.188 20.8564 -15.612 0 0 0 0 0 0 -21 0 0 0 0 0 0 0 0 0 0 0 0 0 0 21 0 0 0 0 0 0 0 0 0 0 0 0 0 0 0 0 0 0 0 0 0 0 -16 0 0 21 0 0 11 0 0 0 -8 0 0 0 0 0 0 0 0 0 0 0 0 0 0 0 0 0 0 0 0 8 0 0 0 0 0 0 0 0 0 0 0 0 0 0 0 0 0
10.1880 20.8564 -15.6120 -0.5863 0.7830 3.5725 0.0000 0.0000 0.0000 -16.3134 -5.5138 -6.7596 2.2269 9.3236 26.8129 0.9212 -17.4390 -19.6929 0.0026 0.3305 0.9080 0.0000 0.0000 0.0000 20.2697 -1.8950 7.4149 -0.0088 -0.6057 1.6646 -1.0721 0.0186 -19.5746 -0.7105 -5.3871 15.0161 0.9378 -0.3447 -10.8800 -1.2241 -0.5308 -6.4609 -1.8476 -0.3129 -0.6508 -1.7723 -3.2763 -3.5887 3.4230 -4.8055 14.6680 1.0866 -2.2490 5.1208 0.0000 0.0000 0.0000 51.3222 -36.2231 -70.7597 10.6556 -17.7585 -1.6694 -0.0000 0.0000 -1.4959 17.5581 -17.8282 -5.5333 -7.1250 0.0000 -0.0000 -6.8636 11.4418 5.4055 0.0000 0.0000 0.0000 -43.6302 29.9813 -77.3501 -9.9312 16.6318 -1.4552 0.0000 0.0000 7.2958 -18.8186 -24.3801 8.0075 7.1250 -0.0000 -0.0000 11.3667 -55.2033 -2.8748
10.1890 20.8565 -15.6140 -0.5772 0.7714 3.5952 0.0000 0.0000 0.0000 -16.3274 -5.5012 -6.7819 2.2234 9.3166 26.7909 0.9213 -17.4299 -19.6897 0.0024 0.3150 0.8656 0.0000 0.0000 0.0000 20.2730 -1.8403 7.2964 -0.0107 -0.6675 1.8343 -1.0816 0.0747 -19.6429 -0.7092 -5.3821 15.0016 0.9366 -0.3239 -10.8914 -1.2375 -0.5032 -6.4725 -1.8582 -0.2994 -0.6558 -1.7081 -3.2371 -3.6657 3.3497 -4.7457 14.6541 1.0556 -2.2199 5.1247 0.0000 0.0000 0.0000 51.3130 -36.1901 -70.4785 10.6251 -17.7114 -1.6601 -0.0000 0.0000 -1.7037 17.5148 -17.8424 -5.5230 -7.1250 0.0000 -0.0000 -6.8926 11.4322 5.4301 0.0000 0.0000 0.0000 -43.5554 29.9646 -77.2092 -9.9408 16.6469 -1.4579 0.0000 0.0000 7.2275 -18.6606 -24.3899 7.9391 7.1250 -0.0000 -0.0000 11.5336 -55.1818 -2.9118
10.1903 20.8559 -15.6163 -0.5660 0.7644 3.6126 0.0000 0.0000 0.0000 -16.3465 -5.5072 -6.8008 2.2220 9.3140 26.7825 0.9222 -17.4226 -19.6936 0.0025 0.3258 0.8951 0.0000 0.0000 0.0000 20.2625 -1.8115 7.2371 -0.0115 -0.6914 1.9000 -1.0858 0.0923 -19.6750 -0.7047 -5.3654 14.9538 0.9369 -0.3053 -10.8924 -1.2523 -0.4786 -6.4813 -1.8712 -0.2875 -0.6637 -1.5872 -3.2151 -3.7151 3.1950 -4.7014 14.5920 0.9900 -2.2012 5.1064 0.0000 0.0000 0.0000 51.2953 -36.1965 -70.4469 10.6107 -17.6891 -1.6557 -0.0000 0.0000 -1.6110 17.4028 -17.8266 -5.4810 -7.1250 0.0000 -0.0000 -6.9656 11.4613 5.4843 0.0000 0.0000 0.0000 -43.4759 29.9399 -77.0156 -9.9513 16.6633 -1.4609 0.0000 0.0000 7.1132 -18.5591 -24.4033 7.8973 7.1250 -0.0000 -0.0000 11.6441 -55.1752 -2.9384
10.1917 20.8548 -15.6188 -0.5572 0.7658 3.6215 0.0000 0.0000 0.0000 -16.3644 -5.5258 -6.8105 2.2214 9.3128 26.7789 0.9241 -17.4174 -19.7042 0.0030 0.3509 0.9643 0.0000 0.0000 0.0000 20.2528 -1.7985 7.1975 -0.0120 -0.7059 1.9398 -1.0886 0.0974 -19.6989 -0.6974 -5.3381 14.8756 0.9418 -0.2909 -10.8809 -1.2662 -0.4599 -6.4875 -1.8864 -0.2786 -0.6758 -1.4290 -3.2036 -3.7422 2.9775 -4.6655 14.5074 0.8991 -2.1891 5.0753 0.0000 -0.0000 0.0000 51.2654 -36.2366 -70.6029 10.6121 -17.6913 -1.6561 -0.0000 0.0000 -1.3070 17.3255 -17.7876 -5.4438 -7.1250 0.0000 -0.0000 -7.0150 11.5102 5.5167 0.0000 -0.0000 0.0000 -43.3918 29.9083 -76.7648 -9.9639 16.6830 -1.4646 0.0000 0.0000 6.9481 -18.5397 -24.4407 7.8998 7.1250 -0.0000 -0.0000 11.6814 -55.2089 -2.9576
10.1932 20.8533 -15.6216 -0.5531 0.7761 3.6220 0.0000 0.0000 0.0000 -16.3772 -5.5545 -6.8146 2.2222 9.3142 26.7833 0.9258 -17.4198 -19.7172 0.0037 0.3935 1.0812 0.0000 0.0000 0.0000 20.2466 -1.8009 7.1747 -0.0122 -0.7121 1.9570 -1.0898 0.0938 -19.7109 -0.6923 -5.3192 14.8213 0.9538 -0.2803 -10.8601 -1.2791 -0.4467 -6.4915 -1.9050 -0.2727 -0.6910 -1.2627 -3.1969 -3.7505 2.7347 -4.6336 14.4233 0.7991 -2.1804 5.0406 0.0000 0.0000 0.0000 51.2279 -36.2925 -70.8365 10.6251 -17.7114 -1.6601 -0.0000 0.0000 -0.9283 17.3578 -17.7366 -5.4395 -7.1250 0.0000 -0.0000 -6.9917 11.5590 5.4910 0.0000 0.0000 0.0000 -43.3111 29.8786 -76.5182 -9.9739 16.6987 -1.4674 0.0000 0.0000 6.7935 -18.6065 -24.4979 7.9472 7.1250 -0.0000 -0.0000 11.6393 -55.2794 -2.9668
10.1947 20.8512 -15.6243 -0.5512 0.7929 3.6128 0.0000 0.0000 0.0000 -16.3867 -5.5826 -6.8132 2.2237 9.3172 26.7928 0.9251 -17.4355 -19.7190 0.0050 0.4551 1.2506 0.0000 0.0000 0.0000 20.2432 -1.8120 7.1573 -0.0124 -0.7199 1.9783 -1.0912 0.0955 -19.7235 -0.6921 -5.3182 14.8183 0.9688 -0.2727 -10.8329 -1.2911 -0.4378 -6.4945 -1.9248 -0.2690 -0.7088 -1.1157 -3.1884 -3.7472 2.5073 -4.6010 14.3580 0.7073 -2.1712 5.0106 -0.0000 -0.0000 0.0000 51.1791 -36.3576 -71.0822 10.6497 -17.7493 -1.6676 -0.0000 0.0000 -0.5598 17.4808 -17.7020 -5.4700 -7.1250 0.0000 -0.0000 -6.9093 11.5806 5.4222 -0.0000 -0.0000 0.0000 -43.2445 29.8624 -76.3514 -9.9764 16.7026 -1.4682 0.0000 0.0000 6.7161 -18.7102 -24.5711 8.0163 7.1250 -0.0000 -0.0000 11.5666 -55.3736 -2.9744
10.1962 20.8489 -15.6268 -0.5411 0.8106 3.5960 0.0000 0.0000 0.0000 -16.4050 -5.6088 -6.8041 2.2252 9.3202 26.8022 0.9216 -17.4647 -19.7057 0.0070 0.5399 1.4836 0.0000 0.0000 0.0000 20.2339 -1.8199 7.1266 -0.0132 -0.7427 2.0410 -1.0956 0.1222 -19.7543 -0.6973 -5.3378 14.8746 0.9749 -0.2666 -10.8052 -1.3038 -0.4301 -6.4945 -1.9404 -0.2657 -0.7237 -1.0098 -3.1768 -3.7382 2.3317 -4.5686 14.3180 0.6382 -2.1609 4.9897 0.0000 0.0000 0.0000 51.1250 -36.4276 -71.3509 10.6815 -17.7984 -1.6773 -0.0000 0.0000 -0.1970 17.5952 -17.7166 -5.5122 -7.1250 0.0000 -0.0000 -6.8345 11.5527 5.3666 0.0000 0.0000 0.0000 -43.2031 29.8613 -76.3177 -9.9690 16.6911 -1.4660 0.0000 0.0000 6.7545 -18.7988 -24.6532 8.0815 7.1250 -0.0000 -0.0000 11.5137 -55.4737 -2.9887
10.1976 20.8465 -15.6289 -0.5213 0.8257 3.5754 0.0000 0.0000 0.0000 -16.4342 -5.6292 -6.7875 2.2259 9.3215 26.8062 0.9167 -17.4963 -19.6842 0.0094 0.6255 1.7188 0.0000 0.0000 0.0000 20.2203 -1.8143 7.0640 -0.0151 -0.7929 2.1791 -1.1047 0.1958 -19.8121 -0.7112 -5.3898 15.0237 0.9670 -0.2604 -10.7870 -1.3155 -0.4210 -6.4874 -1.9470 -0.2610 -0.7258 -0.9473 -3.1626 -3.7284 2.2157 -4.5379 14.2978 0.5943 -2.1499 4.9772 0.0000 0.0000 0.0000 51.0728 -36.4945 -71.6462 10.7125 -17.8462 -1.6868 -0.0000 -0.0000 0.1528 17.6394 -17.7928 -5.5498 -7.1250 0.0000 -0.0000 -6.8086 11.4691 5.3578 0.0000 0.0000 0.0000 -43.1916 29.8693 -76.4142 -9.9527 16.6655 -1.4614 0.0000 0.0000 6.8993 -18.8430 -24.7178 8.1213 7.1250 -0.0000 -0.0000 11.4982 -55.5474 -3.0053
10.1988 20.8444 -15.6306 -0.4984 0.8388 3.5545 0.0000 0.0000 0.0000 -16.4655 -5.6344 -6.7685 2.2253 9.3204 26.8028 0.9116 -17.5247 -19.6601 0.0112 0.6827 1.8760 0.0000 0.0000 0.0000 20.2085 -1.7977 6.9756 -0.0179 -0.8643 2.3755 -1.1168 0.2986 -19.8872 -0.7279 -5.4512 15.2000 0.9488 -0.2545 -10.7858 -1.3217 -0.4114 -6.4706 -1.9423 -0.2555 -0.7084 -0.9268 -3.1450 -3.7173 2.1550 -4.5066 14.2788 0.5743 -2.1373 4.9671 -0.0000 0.0000 0.0000 51.0256 -36.5456 -71.9293 10.7354 -17.8815 -1.6938 -0.0000 -0.0000 0.4305 17.5851 -17.9169 -5.5688 -7.1250 0.0000 -0.0000 -6.8495 11.3475 5.4077 -0.0000 0.0000 0.0000 -43.2019 29.8736 -76.5588 -9.9366 16.6404 -1.4567 0.0000 0.0000 7.0633 -18.8373 -24.7628 8.1323 7.1250 -0.0000 -0.0000 11.5253 -55.5914 -3.0249
10.1998 20.8428 -15.6321 -0.4773 0.8491 3.5390 0.0000 0.0000 0.0000 -16.4936 -5.6326 -6.7527 2.2237 9.3174 26.7932 0.9075 -17.5460 -19.6401 0.0123 0.7155 1.9662 0.0000 0.0000 0.0000 20.2005 -1.7752 6.8793 -0.0212 -0.9392 2.5816 -1.1285 0.4006 -19.9587 -0.7425 -5.5043 15.3528 0.9250 -0.2481 -10.8025 -1.3226 -0.4007 -6.4454 -1.9290 -0.2490 -0.6723 -0.9382 -3.1256 -3.6994 2.1398 -4.4758 14.2406 0.5738 -2.1241 4.9516 -0.0000 -0.0000 0.0000 50.9932 -36.5706 -72.1571 10.7457 -17.8974 -1.6969 -0.0000 -0.0000 0.5874 17.4282 -18.0461 -5.5544 -7.1250 0.0000 -0.0000 -6.9580 11.2327 5.5112 -0.0000 -0.0000 0.0000 -43.2264 29.8675 -76.7146 -9.9247 16.6218 -1.4533 0.0000 0.0000 7.2098 -18.7803 -24.7949 8.1159 7.1250 -0.0000 -0.0000 11.5993 -55.6121 -3.0506
10.2004 20.8418 -15.6336 -0.4678 0.8562 3.5298 0.0000 0.0000 0.0000 -16.5072 -5.6276 -6.7427 2.2218 9.3135 26.7809 0.9063 -17.5547 -19.6351 0.0123 0.7153 1.9658 0.0000 0.0000 0.0000 20.2051 -1.7414 6.7978 -0.0242 -1.0034 2.7580 -1.1386 0.4815 -20.0229 -0.7560 -5.5532 15.4932 0.9063 -0.2399 -10.8337 -1.3187 -0.3880 -6.4141 -1.9135 -0.2415 -0.6220 -0.9533 -3.1010 -3.6616 2.1377 -4.4382 14.1513 0.5791 -2.1075 4.9174 0.0000 0.0000 0.0000 50.9739 -36.5767 -72.3228 10.7478 -17.9007 -1.6976 -0.0000 -0.0000 0.6387 17.2396 -18.1418 -5.5188 -7.1250 0.0000 -0.0000 -7.0858 11.1560 5.6252 0.0000 0.0000 0.0000 -43.2578 29.8494 -76.8675 -9.9154 16.6072 -1.4507 0.0000 0.0000 7.3359 -18.6759 -24.8149 8.0741 7.1250 -0.0000 -0.0000 11.7167 -55.6112 -3.0818
10.2008 20.8415 -15.6351 -0.4769 0.8588 3.5251 0.0000 0.0000 0.0000 -16.4984 -5.6153 -6.7415 2.2202 9.3105 26.7715 0.9086 -17.5534 -19.6507 0.0108 0.6724 1.8477 0.0000 0.0000 0.0000 20.2238 -1.7241 6.7418 -0.0262 -1.0444 2.8710 -1.1443 0.5426 -20.0545 -0.7660 -5.5891 15.5967 0.9036 -0.2291 -10.8762 -1.3095 -0.3734 -6.3781 -1.9014 -0.2332 -0.5605 -0.9419 -3.0621 -3.5810 2.1041 -4.3762 13.9566 0.5733 -2.0806 4.8417 0.0000 -0.0000 0.0000 50.9594 -36.5703 -72.4183 10.7458 -17.8975 -1.6970 -0.0000 -0.0000 0.6061 17.0908 -18.1870 -5.4817 -7.1250 0.0000 -0.0000 -7.1852 11.1266 5.7098 0.0000 -0.0000 0.0000 -43.2928 29.8204 -77.0058 -9.9077 16.5951 -1.4485 0.0000 0.0000 7.4397 -18.5678 -24.8294 8.0289 7.1250 -0.0000 -0.0000 11.8352 -55.6039 -3.1115
10.2013 20.8416 -15.6369 -0.5000 0.8565 3.5233 0.0000 0.0000 0.0000 -16.4739 -5.6015 -6.7499 2.2199 9.3098 26.7692 0.9137 -17.5457 -19.6832 0.0088 0.6057 1.6645 0.0000 0.0000 0.0000 20.2501 -1.7135 6.7226 -0.0268 -1.0567 2.9047 -1.1454 0.5689 -20.0560 -0.7737 -5.6163 15.6751 0.9167 -0.2154 -10.9225 -1.2990 -0.3565 -6.3409 -1.8967 -0.2242 -0.4960 -0.9250 -3.0337 -3.4717 2.0639 -4.3279 13.7393 0.5643 -2.0609 4.7545 -0.0000 -0.0000 0.0000 50.9491 -36.5469 -72.4042 10.7377 -17.8851 -1.6945 -0.0000 -0.0000 0.4811 16.9839 -18.1631 -5.4386 -7.1250 0.0000 -0.0000 -7.2543 11.1632 5.7601 -0.0000 -0.0000 0.0000 -43.3272 29.7874 -77.1332 -9.9005 16.5837 -1.4464 0.0000 0.0000 7.5341 -18.5116 -24.8317 8.0039 7.1250 -0.0000 -0.0000 11.8944 -55.5950 -3.1248
10.2020 20.8415 -15.6392 -0.5310 0.8516 3.5200 0.0000 0.0000 0.0000 -16.4415 -5.5909 -6.7622 2.2210 9.3120 26.7761 0.9201 -17.5360 -19.7242 0.0068 0.5310 1.4591 0.0000 0.0000 0.0000 20.2766 -1.7133 6.7429 -0.0259 -1.0395 2.8575 -1.1421 0.5583 -20.0302 -0.7764 -5.6259 15.7028 0.9441 -0.2003 -10.9635 -1.2905 -0.3389 -6.3054 -1.9019 -0.2152 -0.4360 -0.8690 -3.0030 -3.3225 1.9732 -4.2714 13.4479 0.5351 -2.0389 4.6358 0.0000 -0.0000 0.0000 50.9399 -36.5066 -72.2830 10.7247 -17.8651 -1.6905 -0.0000 -0.0000 0.2926 16.8850 -18.0708 -5.3788 -7.1250 0.0000 -0.0000 -7.3156 11.2692 5.7936 0.0000 -0.0000 0.0000 -43.3532 29.7574 -77.2374 -9.8951 16.5753 -1.4449 0.0000 0.0000 7.6130 -18.5204 -24.8230 8.0053 7.1250 -0.0000 -0.0000 11.8811 -55.5880 -3.1192
